<?xml version="1.0" encoding="utf-8"?>
<!-- Generator: Adobe Illustrator 25.1.0, SVG Export Plug-In . SVG Version: 6.00 Build 0)  -->
<svg version="1.1" id="Layer_1" xmlns="http://www.w3.org/2000/svg" xmlns:xlink="http://www.w3.org/1999/xlink" x="0px" y="0px"
	 viewBox="0 0 24 24" style="enable-background:new 0 0 24 24;" xml:space="preserve">
<style type="text/css">
	.st0{fill:none;stroke:#38B2AC;stroke-width:2;}
	.st1{fill-rule:evenodd;clip-rule:evenodd;fill:#38B2AC;stroke:#38B2AC;stroke-miterlimit:10;}
</style>
<desc>Created with Sketch.</desc>
<g id="Page-1">
	<g id="Artboard-4" transform="translate(-708.000000, -863.000000)">
		<g id="_x33_56" transform="translate(708.000000, 863.000000)">
			<path id="Fill-1" class="st0" d="M12,3C9.6,3,9.2,3,8.3,3.1c-1,0-1.6,0.2-2.2,0.4C5.5,3.7,5,4,4.5,4.5C4,5,3.7,5.5,3.5,6.1
				C3.2,6.7,3.1,7.3,3.1,8.3C3,9.3,3,9.6,3,12c0,2.4,0,2.8,0.1,3.7c0,1,0.2,1.6,0.4,2.2c0.2,0.6,0.5,1.1,1,1.6c0.5,0.5,1,0.8,1.6,1
				c0.6,0.2,1.2,0.4,2.2,0.4c1,0,1.3,0.1,3.7,0.1c2.4,0,2.8,0,3.7-0.1c1,0,1.6-0.2,2.2-0.4c0.6-0.2,1.1-0.5,1.6-1
				c0.5-0.5,0.8-1,1-1.6c0.2-0.6,0.4-1.2,0.4-2.2c0-1,0.1-1.3,0.1-3.7c0-2.4,0-2.8-0.1-3.7c0-1-0.2-1.6-0.4-2.2
				c-0.2-0.6-0.5-1.1-1-1.6c-0.5-0.5-1-0.8-1.6-1c-0.6-0.2-1.2-0.4-2.2-0.4C14.7,3,14.4,3,12,3z"/>
			<circle id="Oval-204" class="st0" cx="12" cy="12" r="4"/>
			<circle id="Oval-205" class="st1" cx="17.2" cy="6.8" r="1.2"/>
		</g>
	</g>
</g>
</svg>
