<svg xmlns="http://www.w3.org/2000/svg" viewBox="0 0 225.85 372.68"><defs><style>.cls-1{fill:#38b2ac;}</style></defs><g id="Layer_2" data-name="Layer 2"><g id="Layer_1-2" data-name="Layer 1"><text/><path class="cls-1" d="M0,283.47V109.59H81.34c37.8,0,58.39,25.55,58.39,56,0,30.24-20.85,56.05-58.39,56.05H37v61.78ZM101.93,165.64c0-14.6-11-23.47-25.55-23.47H37V189.1H76.38C91,189.1,101.93,180,101.93,165.64Z"/><path class="cls-1" d="M34.78,0a204.44,204.44,0,0,1,75,16.92,198,198,0,0,1,62.55,43.26,189.87,189.87,0,0,1,40.85,63.14,183.71,183.71,0,0,1,12.53,73.21,181.23,181.23,0,0,1-17.24,71.18,181.9,181.9,0,0,1-43.24,57.78A185.46,185.46,0,0,1,34.78,372.56a183.81,183.81,0,0,0,67.44-15.47,177.65,177.65,0,0,0,55.93-39,169,169,0,0,0,36.23-56.48,163.19,163.19,0,0,0,10.86-65.09,160.57,160.57,0,0,0-15.56-63.06,161.65,161.65,0,0,0-38.63-51.13A165,165,0,0,0,34.78,41Z"/></g></g></svg>