<svg xmlns="http://www.w3.org/2000/svg" viewBox="0 0 1121.14 372.68"><defs><style>.cls-1{font-size:200px;font-family:ProximaNova-Bold, Proxima Nova;font-weight:700;}.cls-1,.cls-4{fill:#38b2ac;}.cls-2{letter-spacing:-0.02em;}.cls-3{fill:#000333;}</style></defs><g id="Layer_2" data-name="Layer 2"><g id="Layer_1-2" data-name="Layer 1"><text class="cls-1" transform="translate(0 233.58)"><tspan class="cls-2">P</tspan><tspan x="120.8" y="0">arent</tspan><tspan class="cls-3" x="595.39" y="0">shop</tspan></text><text/><path class="cls-4" d="M930.07,0a204.45,204.45,0,0,1,75,16.92,198.09,198.09,0,0,1,62.54,43.26,189.87,189.87,0,0,1,40.85,63.14A183.71,183.71,0,0,1,1121,196.53a180.83,180.83,0,0,1-60.48,129,185.46,185.46,0,0,1-130.48,47.07,183.81,183.81,0,0,0,67.44-15.47,177.54,177.54,0,0,0,55.93-39,169,169,0,0,0,36.23-56.48,163.19,163.19,0,0,0,10.86-65.09,160.35,160.35,0,0,0-54.19-114.19A165,165,0,0,0,930.07,41Z"/></g></g></svg>