<?xml version="1.0" encoding="utf-8"?>
<!-- Generator: Adobe Illustrator 25.1.0, SVG Export Plug-In . SVG Version: 6.00 Build 0)  -->
<svg version="1.1" id="Layer_1" xmlns="http://www.w3.org/2000/svg" xmlns:xlink="http://www.w3.org/1999/xlink" x="0px" y="0px"
	 viewBox="0 0 24 24" style="enable-background:new 0 0 24 24;" xml:space="preserve">
<style type="text/css">
	.st0{fill:none;stroke:#38B2AC;stroke-width:2;stroke-linejoin:round;}
</style>
<desc>Created with Sketch.</desc>
<g id="Page-1">
	<g id="Artboard-4" transform="translate(-796.000000, -863.000000)">
		<g id="_x33_58" transform="translate(796.000000, 863.000000)">
			<path id="Path-287" class="st0" d="M18,1.5c0,0-1.5-0.5-2.5-0.5C12,1,9,3,9,6v3H6c-0.6,0-1,0.4-1,1v2c0,0.6,0.4,1,1,1h3v9
				c0,0.5,0.4,1,1,1h2c0.6,0,1-0.5,1-1v-9h3c0.6,0,1.1-0.4,1.3-1l0.5-2.1c0.1-0.5-0.2-1-0.8-1h-4V7c0-1.1,0.9-2,2-2h3V1.5z"/>
		</g>
	</g>
</g>
</svg>
