<?xml version="1.0" encoding="utf-8"?>
<!-- Generator: Adobe Illustrator 25.1.0, SVG Export Plug-In . SVG Version: 6.00 Build 0)  -->
<svg version="1.1" id="Layer_1" xmlns="http://www.w3.org/2000/svg" xmlns:xlink="http://www.w3.org/1999/xlink" x="0px" y="0px"
	 viewBox="0 0 24 24" style="enable-background:new 0 0 24 24;" xml:space="preserve">
<style type="text/css">
	.st0{fill:none;stroke:#38B2AC;stroke-width:2;stroke-linejoin:round;}
</style>
<desc>Created with Sketch.</desc>
<g id="Page-1">
	<g id="Artboard-4" transform="translate(-752.000000, -863.000000)">
		<g id="_x33_57" transform="translate(752.000000, 863.000000)">
			<path id="Shape" class="st0" d="M20,8.5c0-0.2,0-1,0-1.5c0.9-0.5,1.2-1.6,1.5-2.5c-0.8,0.5-1.7,0.6-2.7,0.8
				c-1.3-1.3-3.3-1.7-4.9-0.8S11.4,7.2,11.8,9C8.5,8.8,5.5,7.3,3.4,4.7c-1.1,1.8-0.5,4.2,1.3,5.4c-0.7,0-1.3-0.2-1.9-0.5v0.1
				c0,1.9,1.4,3.6,3.3,4c-0.6,0.2-1.2,0.2-1.9,0.1c0.5,1.6,2.1,2.8,3.8,2.8c-1.5,1.1-3.2,1.7-5.1,1.7c-0.3,0-0.7,0-1-0.1
				C3.9,19.4,6.1,20,8.3,20C15.8,20,20,13.8,20,8.5z"/>
		</g>
	</g>
</g>
</svg>
